<?xml version="1.0" standalone="no"?>
<!DOCTYPE svg PUBLIC "-//W3C//DTD SVG 20010904//EN"
 "http://www.w3.org/TR/2001/REC-SVG-20010904/DTD/svg10.dtd">
<svg version="1.0" xmlns="http://www.w3.org/2000/svg"
 width="69.000000pt" height="73.000000pt" viewBox="0 0 69.000000 73.000000"
 preserveAspectRatio="xMidYMid meet">

<g transform="translate(0.000000,73.000000) scale(0.100000,-0.100000)"
fill="#000000" stroke="none">
<path d="M283 690 c-34 -20 -63 -66 -63 -100 0 -17 -6 -20 -39 -20 -22 0 -42
-4 -45 -9 -3 -4 -13 -108 -23 -229 -16 -214 -16 -222 2 -242 17 -19 29 -20
235 -20 206 0 218 1 235 20 18 20 18 28 1 242 -9 122 -19 225 -22 230 -3 4
-23 8 -45 8 -34 0 -39 3 -39 23 0 12 -9 36 -20 54 -37 61 -116 81 -177 43z
m101 -34 c32 -13 63 -65 49 -80 -8 -8 -158 -8 -166 0 -13 14 17 67 47 80 38
16 31 16 70 0z m-162 -188 c2 -50 6 -63 21 -66 15 -3 17 5 17 62 l0 66 90 0
90 0 0 -66 c0 -57 2 -65 18 -62 14 3 18 16 20 66 3 57 5 62 26 62 22 0 23 -3
39 -202 9 -111 14 -206 11 -210 -7 -10 -401 -10 -408 0 -3 4 2 99 11 210 16
199 17 202 39 202 21 0 23 -5 26 -62z"/>
</g>
</svg>
