<?xml version="1.0" standalone="no"?>
<!DOCTYPE svg PUBLIC "-//W3C//DTD SVG 20010904//EN"
 "http://www.w3.org/TR/2001/REC-SVG-20010904/DTD/svg10.dtd">
<svg version="1.0" xmlns="http://www.w3.org/2000/svg"
 width="123.000000pt" height="120.000000pt" viewBox="0 0 123.000000 120.000000"
 preserveAspectRatio="xMidYMid meet">

<g transform="translate(0.000000,120.000000) scale(0.100000,-0.100000)"
fill="#000000" stroke="none">
<path d="M422 1160 c-206 -54 -323 -182 -368 -400 -21 -106 -15 -231 15 -320
65 -191 169 -334 279 -383 126 -57 309 -60 451 -8 263 96 404 282 404 536 1
79 -3 100 -32 170 -46 115 -111 214 -186 284 -114 106 -209 141 -379 140 -76
0 -134 -6 -184 -19z m205 -362 c-3 -8 -6 -5 -6 6 -1 11 2 17 5 13 3 -3 4 -12
1 -19z m103 -22 c0 -3 -4 -8 -10 -11 -5 -3 -10 -1 -10 4 0 6 5 11 10 11 6 0
10 -2 10 -4z m-185 -16 c3 -5 1 -10 -4 -10 -6 0 -11 5 -11 10 0 6 2 10 4 10 3
0 8 -4 11 -10z m135 -29 c5 -11 10 -28 10 -37 0 -51 -84 -75 -114 -32 -24 33
-19 45 5 14 23 -30 54 -33 81 -9 22 20 23 41 1 65 -9 10 -11 18 -5 18 6 0 16
-9 22 -19z m70 -41 c0 -5 -2 -10 -4 -10 -3 0 -8 5 -11 10 -3 6 -1 10 4 10 6 0
11 -4 11 -10z m-235 -10 c3 -5 1 -10 -4 -10 -6 0 -11 5 -11 10 0 6 2 10 4 10
3 0 8 -4 11 -10z m200 -70 c3 -5 2 -10 -4 -10 -5 0 -13 5 -16 10 -3 6 -2 10 4
10 5 0 13 -4 16 -10z m-88 -32 c-3 -8 -6 -5 -6 6 -1 11 2 17 5 13 3 -3 4 -12
1 -19z m-401 -137 c-3 -23 -2 -42 4 -46 6 -4 10 10 10 34 0 23 5 41 11 41 6 0
9 -17 7 -42 -2 -35 -7 -43 -23 -43 -17 0 -20 8 -23 48 -2 31 1 47 9 47 8 0 10
-12 5 -39z m106 21 c17 22 18 22 18 3 0 -21 -34 -58 -44 -48 -3 4 -6 -6 -6
-20 0 -54 -17 -25 -18 31 -1 55 0 56 15 34 l17 -24 18 24z m74 -32 c9 -44 9
-50 -4 -45 -9 3 -19 0 -23 -7 -4 -7 -10 -10 -13 -8 -6 7 15 110 23 110 4 0 12
-23 17 -50z m110 5 c0 -30 5 -41 18 -43 15 -3 17 2 11 42 -5 30 -4 46 3 46 6
0 12 -24 14 -52 l4 -53 8 53 c10 61 36 74 36 18 0 -19 3 -43 6 -53 5 -12 4
-15 -4 -8 -5 6 -12 19 -15 30 -3 13 -5 9 -6 -12 -1 -35 8 -33 -108 -25 -21 2
-23 7 -23 51 0 48 1 50 28 48 24 -2 27 -6 28 -42z m183 31 c7 -8 11 -30 9 -48
-2 -25 -8 -34 -25 -36 -21 -3 -23 0 -23 47 0 53 15 67 39 37z m71 4 c0 -5 -6
-10 -14 -10 -9 0 -14 -12 -14 -35 0 -24 5 -35 15 -35 8 0 12 -4 9 -9 -3 -5
-14 -7 -25 -4 -15 4 -19 14 -18 54 1 44 3 49 24 49 13 0 23 -4 23 -10z m88
-42 c-3 -46 -6 -53 -25 -56 -13 -2 -23 2 -23 8 0 6 8 10 18 8 14 -3 17 4 14
45 -2 29 1 47 8 47 7 0 10 -19 8 -52z m58 26 l6 -25 12 23 c13 25 37 31 44 10
3 -9 -3 -12 -14 -10 -14 2 -20 -4 -22 -24 -2 -16 1 -28 7 -28 6 0 8 7 5 15 -4
9 0 15 10 15 11 0 16 -9 16 -31 0 -24 -3 -30 -16 -25 -9 3 -20 6 -25 6 -5 0
-9 10 -10 23 l0 22 -11 -23 c-16 -33 -42 -24 -46 17 -2 18 -1 39 2 47 9 23 35
16 42 -12z m122 -22 c2 -32 -1 -44 -13 -49 -21 -8 -35 13 -35 53 0 35 8 46 30
42 10 -2 16 -17 18 -46z m-688 -37 c0 -8 -4 -15 -10 -15 -5 0 -10 7 -10 15 0
8 5 15 10 15 6 0 10 -7 10 -15z"/>
<path d="M385 410 c3 -5 8 -10 11 -10 2 0 4 5 4 10 0 6 -5 10 -11 10 -5 0 -7
-4 -4 -10z"/>
<path d="M502 440 c0 -14 2 -19 5 -12 2 6 2 18 0 25 -3 6 -5 1 -5 -13z"/>
<path d="M470 428 c0 -9 5 -20 10 -23 13 -8 13 5 0 25 -8 13 -10 13 -10 -2z"/>
<path d="M680 431 c0 -17 5 -31 10 -31 6 0 10 11 10 24 0 14 -4 28 -10 31 -6
4 -10 -7 -10 -24z"/>
<path d="M892 430 c0 -19 2 -27 5 -17 2 9 2 25 0 35 -3 9 -5 1 -5 -18z"/>
<path d="M1012 430 c0 -19 2 -27 5 -17 2 9 2 25 0 35 -3 9 -5 1 -5 -18z"/>
</g>
</svg>
